<svg xmlns="http://www.w3.org/2000/svg" viewBox="0 0 300 100" width="300" height="100">
  <title>EdgeX Full Logo Reversed</title>
  <metadata>
    <rdf:RDF xmlns:rdf="http://www.w3.org/1999/02/22-rdf-syntax-ns#"
             xmlns:dc="http://purl.org/dc/elements/1.1/">
      <rdf:Description>
        <dc:title>EdgeX Full Logo Reversed</dc:title>
        <dc:creator>EdgeX Project</dc:creator>
        <dc:description>Official EdgeX full logo with symbol and wordmark for dark backgrounds</dc:description>
      </rdf:Description>
    </rdf:RDF>
  </metadata>
  <defs>
    <style>
      .hex-structure { 
        fill: none; 
        stroke: #F8FAFC; 
        stroke-width: 2; 
        stroke-linecap: round; 
        stroke-linejoin: round;
      }
      .node-point {
        fill: #19A7CE;
      }
      .wordmark {
        fill: #F8FAFC;
      }
    </style>
  </defs>
  
  <!-- Symbol Group - Scaled and Positioned -->
  <g id="logo-symbol" transform="translate(15, 18) scale(0.8)">
    <!-- Main Hexagon Structure -->
    <path class="hex-structure" d="M32,8 L52,20 L52,44 L32,56 L12,44 L12,20 Z" />
    
    <!-- Inner X Structure -->
    <path class="hex-structure" d="M22,20 L42,44 M42,20 L22,44" />
    
    <!-- Additional Connection Lines -->
    <path class="hex-structure" d="M32,8 L32,20 M32,44 L32,56" />
    
    <!-- Node Points -->
    <circle class="node-point" cx="32" cy="8" r="3" />
    <circle class="node-point" cx="52" cy="20" r="3" />
    <circle class="node-point" cx="52" cy="44" r="3" />
    <circle class="node-point" cx="32" cy="56" r="3" />
    <circle class="node-point" cx="12" cy="44" r="3" />
    <circle class="node-point" cx="12" cy="20" r="3" />
    
    <!-- Central Node Point (where lines cross) -->
    <circle class="node-point" cx="32" cy="32" r="3" />
  </g>
  
  <!-- Wordmark Group - Positioned for Baseline Alignment -->
  <g id="logo-wordmark" transform="translate(85, 28)">
    <!-- Uppercase E -->
    <path class="wordmark" d="M20,10 H45 V16 H26 V25 H40 V31 H26 V40 H45 V46 H20 V10 Z" />
    
    <!-- lowercase d -->
    <path class="wordmark" d="M58,12 V46 H64 V38 C66,40 69,42 73,42 C81,42 88,36 88,26 C88,16 81,10 73,10 C69,10 66,12 64,14 V12 H58 Z M72,16 C77,16 81,20 81,26 C81,32 77,36 72,36 C67,36 63,32 63,26 C63,20 67,16 72,16 Z" />
    
    <!-- lowercase g -->
    <path class="wordmark" d="M102,14 C99,12 96,10 91,10 C83,10 76,16 76,26 C76,36 83,42 91,42 C96,42 99,40 102,38 V40 H108 V26 C108,14 102,10 94,10 C90,10 87,11 84,13 L86,18 C88,17 90,16 93,16 C98,16 102,18 102,26 V26 Z M92,16 C97,16 101,20 101,26 C101,32 97,36 92,36 C87,36 83,32 83,26 C83,20 87,16 92,16 Z" />
    
    <!-- lowercase e -->
    <path class="wordmark" d="M121,10 C113,10 107,16 107,26 C107,36 113,42 122,42 C126,42 129,41 132,39 L130,34 C128,35 125,36 122,36 C118,36 114,34 113,30 H134 C134,16 129,10 121,10 Z M121,16 C125,16 128,18 128,25 H113 C114,20 117,16 121,16 Z" />
    
    <!-- Modified lowercase x -->
    <path class="wordmark" d="M150,11 L138,26 L150,41 H143 L135,31 L127,41 H120 L132,26 L120,11 H127 L135,21 L143,11 H150 Z" />
  </g>
</svg>

